<?xml version="1.0" encoding="utf-8"?>
<!-- Generator: Adobe Illustrator 25.2.0, SVG Export Plug-In . SVG Version: 6.00 Build 0)  -->
<svg version="1.1" id="Layer_1" xmlns="http://www.w3.org/2000/svg" xmlns:xlink="http://www.w3.org/1999/xlink" x="0px" y="0px"
	 viewBox="0 0 800 460" style="enable-background:new 0 0 800 460;" xml:space="preserve">
<style type="text/css">
	.st0{fill:#191D2B;}
	.st1{fill:#FFFFFF;}
	.st2{font-family:'NanumSquareB';}
	.st3{font-size:45px;}
</style>
<g>
	<rect x="0.13" y="0.23" class="st0" width="800" height="460"/>
</g>
<g>
	<g>
		<text transform="matrix(1 0 0 1 258.021 288.2417)" class="st1 st2 st3">GL&amp;T Parking</text>
	</g>
	<g>
		<polygon class="st1" points="409.07,207.82 393.07,217.06 393.07,231.84 421.87,215.21 		"/>
		<polygon class="st1" points="372.27,201.36 359.48,193.97 359.48,212.44 372.27,205.05 		"/>
		<polygon class="st1" points="391.47,158.87 391.47,158.88 359.48,177.34 359.48,177.35 359.48,177.35 359.48,177.35 
			359.48,192.12 359.48,192.12 372.27,199.51 378.68,203.2 378.68,203.2 378.68,203.2 378.68,203.21 378.68,210.6 372.27,206.9 
			372.27,206.9 359.48,214.29 391.47,232.75 391.47,217.98 391.47,195.82 372.27,184.74 372.27,184.73 391.47,173.65 391.47,173.65 
			410.66,184.73 410.67,184.73 410.67,184.74 410.67,206.9 410.67,206.9 423.46,214.29 423.46,177.35 423.46,177.34 		"/>
	</g>
</g>
</svg>
